<?xml version="1.0" encoding="UTF-8"?>
<svg id="Layer_1" xmlns="http://www.w3.org/2000/svg" version="1.1" viewBox="0 0 109.6 110.3">
  <!-- Generator: Adobe Illustrator 29.3.1, SVG Export Plug-In . SVG Version: 2.1.0 Build 151)  -->
  <defs>
    <style>
      .st0 {
        fill: #343741;
      }
    </style>
  </defs>
  <path class="st0" d="M87.8,75.9l-22.2-47.5c-.3-.6-.7-1-1.3-1.2-.6-.2-1.2,0-1.8.2l-5,3-6.8-11.1c-.4-.7-1.2-1.1-2-1-.8,0-1.5.5-1.8,1.3l-25,56.3c-.3.7-.2,1.4.2,2.1.4.6,1.1,1,1.8,1h61.9c.7,0,1.4-.4,1.8-1,.4-.6.4-1.4.1-2.1ZM37,74.7l10.4-12,3,2.8c.4.4,1,.6,1.6.6.6,0,1.1-.3,1.5-.8l5.5-6.8,13.8,16.3h-35.8ZM60.6,53.6c-.4-.5-1-.8-1.7-.8-.6,0-1.3.3-1.7.8l-5.7,7-3-2.7c-.4-.4-1-.6-1.6-.6-.6,0-1.1.3-1.5.7l-13.2,15.2,16.5-28,3.2,2.8c.7.6,1.7.7,2.5.2l5.6-3.4,16.8,28.1-16.4-19.4ZM62.9,40.9c-.3-.5-.8-.9-1.3-1-.6-.1-1.2,0-1.6.3l-6.1,3.8-4-3.5c-.5-.4-1.1-.6-1.8-.5-.6.1-1.2.5-1.5,1l-17.4,29.5,20.1-45.3,5.8,9.4c.6,1,2,1.3,3,.7l4.8-2.9,17.4,37.1-17.2-28.7Z"/>
  <path class="st0" d="M54.8,5.3C27.4,5.3,5,27.7,5,55.1s22.3,49.8,49.8,49.8,49.8-22.3,49.8-49.8S82.3,5.3,54.8,5.3ZM54.8,100.6c-25.1,0-45.5-20.4-45.5-45.5S29.7,9.7,54.8,9.7s45.5,20.4,45.5,45.5-20.4,45.5-45.5,45.5Z"/>
</svg>